# xmcd
#
# Track frame offsets:
#	150
#	21140
#	38596
#	59704
#	77773
#	95330
#	114169
#	131238
#	149384
#	167561
#	188059
#	207997
#	226707
#
# Disc length: 3302 seconds
#
# Revision: 18
# Processed by: cddbd v1.5.2PL0 Copyright (c) Steve Scherf et al.
# Submitted via: EasyCDDAExtractor 15.3.0.1
#
DISCID=a80ce40d
DTITLE=Eros Ramazzotti - Calma Aparente
DYEAR=2005
DGENRE=Latin
TTITLE0=Nuestra Vida
TTITLE1=El Equilibrista
TTITLE2=Como Un Niño
TTITLE3=Tu Eres
TTITLE4=Solaridad
TTITLE5=Esta Pasando Noviembre
TTITLE6=Una Nueva Edad
TTITLE7=Nomadas De Amor
TTITLE8=No Es Amor
TTITLE9=El Ultimo Metro
TTITLE10=I Belong To You (El Ritmo De La Pasion) (Duet With Anastacia)
TTITLE11=Vivo Sin Ti
TTITLE12=Calma Aparente
EXTD=YEAR: 2005
EXTT0=
EXTT1=
EXTT2=
EXTT3=
EXTT4=
EXTT5=
EXTT6=
EXTT7=
EXTT8=
EXTT9=
EXTT10=
EXTT11=
EXTT12=
PLAYORDER=
